<?xml version="1.0" standalone="no"?>
<!DOCTYPE svg PUBLIC "-//W3C//DTD SVG 1.1//EN" "http://www.w3.org/Graphics/SVG/1.1/DTD/svg11.dtd" >
<svg xmlns="http://www.w3.org/2000/svg" xmlns:xlink="http://www.w3.org/1999/xlink" version="1.1">
<metadata>
Created by FontForge 20180930 at Mon Oct  8 19:01:42 2018
 By root
</metadata>
<defs>
<font id="Alesand-Light" horiz-adv-x="464" >
  <font-face 
    font-family="Alesand Light"
    font-weight="300"
    font-stretch="normal"
    units-per-em="1000"
    panose-1="0 0 0 0 0 0 0 0 0 0"
    ascent="800"
    descent="-200"
    x-height="620"
    cap-height="621"
    bbox="8 -161 686 798"
    underline-thickness="50"
    underline-position="-100"
    unicode-range="U+0020-20AC"
  />
    <missing-glyph />
    <glyph glyph-name="space" unicode=" " horiz-adv-x="220" 
 />
    <glyph glyph-name="zcaron" unicode="&#x17e;" horiz-adv-x="433" 
d="M51 630v-52h295l-311 -464v-59h362v51h-317l321 463l1 61h-351zM261 688l67 97h-33l-61 -84l-61 84h-32l67 -97h53z" />
    <glyph glyph-name="exclam" unicode="!" horiz-adv-x="225" 
d="M91 218h44v403h-44v-403zM113 40q15 0 25 13t10 28t-9.5 28t-25.5 13q-17 0 -26.5 -13t-9.5 -28t10 -28t26 -13z" />
    <glyph glyph-name="quotedbl" unicode="&#x22;" horiz-adv-x="491" 
d="M168 461q14 45 30 90t30 90h-52l-46 -180h25h13zM299 461l60 180h-51q-5 -20 -10.5 -41t-10.5 -41q-7 -24 -13.5 -48.5t-12.5 -49.5h38z" />
    <glyph glyph-name="numbersign" unicode="#" horiz-adv-x="436" 
d="M282 409l-20 -152h-112l20 152h112zM159 621q-2 -14 -3.5 -28t-3.5 -28q-4 -29 -7.5 -56.5t-7.5 -56.5h-81v-43h76l-19 -152h-81v-45h76l-21 -166h37l20 166h114l-21 -166h37l20 166h86v45h-80l19 152h86v43h-81l21 169h-37l-20 -169h-113l20 169h-36z" />
    <glyph glyph-name="dollar" unicode="$" horiz-adv-x="403" 
d="M224 352q-21 8 -43.5 19.5t-40.5 27t-30 36.5t-12 47q0 50 34 76t80 26q29 0 55 -12.5t45 -33.5q2 2 4.5 5t4.5 5q6 7 12.5 13.5t12.5 13.5q-29 30 -67.5 45t-78.5 15v57h-27v-60q-56 -11 -89 -55t-33 -102q0 -44 15.5 -72t39.5 -47t53 -31.5t57 -24.5q20 -8 37 -18
t30 -23t20.5 -30t7.5 -41q0 -21 -8.5 -40.5t-23.5 -34.5t-34 -23.5t-40 -8.5q-38 0 -69.5 12.5t-55.5 44.5q-6 -6 -8 -9l-13.5 -13.5t-11.5 -14.5q26 -30 57 -45.5t69 -20.5v-60h27v56q34 2 63 14.5t50.5 34t33.5 50.5t12 65t-10 61t-28 42.5t-42.5 30t-54.5 23.5z" />
    <glyph glyph-name="percent" unicode="%" horiz-adv-x="651" 
d="M401 166q0 37 24 65t62 28q18 0 33.5 -8t27 -20.5t17.5 -29.5t6 -35t-6 -35t-17.5 -30t-27 -21t-33.5 -8q-38 0 -62 28t-24 66zM165 595q18 0 33.5 -8t27 -21t17.5 -30t6 -35t-6 -35t-17.5 -30t-27 -21t-33.5 -8q-38 0 -62 28.5t-24 65.5q0 38 24 66t62 28zM487 31
q26 0 48 11.5t38 30t24.5 43t8.5 50.5t-8.5 50t-24.5 43t-38 30.5t-48 11.5q-27 0 -49 -11.5t-37.5 -30.5t-24.5 -43t-9 -50t9 -50.5t24.5 -43t37.5 -30t49 -11.5zM165 366q26 0 48 11.5t38 30.5t24.5 43.5t8.5 49.5q0 26 -8.5 50.5t-24.5 43t-38 30t-48 11.5
q-27 0 -49 -11.5t-37.5 -30t-24.5 -43t-9 -50.5q0 -25 9 -49.5t24.5 -43.5t37.5 -30.5t49 -11.5zM192 46q31 58 61.5 115t62.5 115l186 345h-43q-31 -58 -61.5 -115t-62.5 -115q-47 -87 -93 -172.5t-92 -172.5h42z" />
    <glyph glyph-name="ampersand" unicode="&#x26;" horiz-adv-x="493" 
d="M186 303q28 -43 59 -83.5t64 -80.5q-21 -23 -49 -40t-60 -17q-19 0 -37 5.5t-32.5 17t-23 28t-8.5 37.5t7.5 40.5t20 36t28 30.5t31.5 26zM231 581q35 0 51 -24t16 -56q0 -23 -9 -42.5t-23.5 -36t-31.5 -30.5t-34 -26q-14 26 -28.5 61t-14.5 66q0 35 19 61.5t55 26.5z
M368 155q20 30 37 62t32 65h-38q-14 -27 -29.5 -53t-31.5 -52q-30 37 -59.5 74.5t-55.5 76.5q23 17 44.5 35t38 39t26 46.5t9.5 57.5q0 26 -7.5 48.5t-21.5 39.5t-34.5 27t-46.5 10q-28 0 -50 -12t-37 -32t-23 -45.5t-8 -51.5q0 -36 17 -77t34 -73q-43 -31 -76 -73.5
t-33 -99.5q0 -30 12 -55t31.5 -43t46 -28t54.5 -10q40 0 74.5 24t60.5 53l56 -62h64q-13 14 -26 29t-27 29q-8 9 -15.5 17.5t-15.5 17.5z" />
    <glyph glyph-name="quotesingle" unicode="'" horiz-adv-x="268" 
d="M131 641l-10 -40t-11 -40q-6 -25 -12.5 -50t-13.5 -50h38q7 20 13.5 40t13.5 40q8 25 16.5 50t16.5 50h-51z" />
    <glyph glyph-name="parenleft" unicode="(" horiz-adv-x="238" 
d="M181 -66q-42 79 -66 162.5t-24 174.5q0 90 30 177t78 162l-27 22q-54 -85 -85 -178t-31 -195q0 -93 25 -179t69 -167q8 5 15.5 10.5t15.5 10.5z" />
    <glyph glyph-name="parenright" unicode=")" horiz-adv-x="236" 
d="M81 -87q46 85 72 173.5t26 185.5t-30 188t-81 172l-29 -22q49 -80 76.5 -164t27.5 -179q0 -89 -25 -173t-67 -161z" />
    <glyph glyph-name="asterisk" unicode="*" horiz-adv-x="337" 
d="M120 352q12 25 23.5 50t24.5 50l49 -100q8 5 14.5 9.5t14.5 9.5q-14 26 -27 52.5t-26 52.5l101 32l-10 39l-100 -31v121h-30v-121l-102 31l-9 -39q26 -8 50.5 -16t49.5 -16l-51 -105z" />
    <glyph glyph-name="plus" unicode="+" horiz-adv-x="512" 
d="M68 303v-39h172v-192h33v192h171v39h-171v192h-33v-192h-172z" />
    <glyph glyph-name="comma" unicode="," horiz-adv-x="220" 
d="M107 80l-10 -40l-10 -40q-7 -25 -13.5 -50t-12.5 -50h38q6 20 12.5 40t13.5 40q8 25 16.5 50t16.5 50h-51z" />
    <glyph glyph-name="hyphen" unicode="-" horiz-adv-x="265" 
d="M42 209h181v39h-181v-39z" />
    <glyph glyph-name="period" unicode="." horiz-adv-x="226" 
d="M113 96q-17 0 -26.5 -13t-9.5 -28q0 -16 9.5 -29t26.5 -13t27 13t10 29t-10.5 28.5t-26.5 12.5z" />
    <glyph glyph-name="slash" unicode="/" horiz-adv-x="295" 
d="M46 8q58 159 116.5 316.5t116.5 317.5l-15 7l-15 7q-58 -159 -116.5 -316.5t-116.5 -317.5z" />
    <glyph glyph-name="zero" unicode="0" horiz-adv-x="445" 
d="M406 338q0 42 -8.5 93.5t-29.5 95.5t-56 74t-87 30q-53 0 -88.5 -31t-57 -77t-30.5 -98.5t-9 -95.5t8.5 -94t29.5 -95t56 -74t87 -30q53 0 88.5 31t57 77t30.5 98.5t9 95.5zM87 332q0 31 6.5 74.5t22.5 83t42 67t66 27.5t66 -27.5t41.5 -66.5t21.5 -81.5t6 -73.5
t-7 -74.5t-23 -83t-42.5 -67.5t-65.5 -28q-40 0 -66 27.5t-41 66.5t-21 82t-6 74z" />
    <glyph glyph-name="one" unicode="1" horiz-adv-x="407" 
d="M216 577v-531h46v575h-59l-109 -108h58z" />
    <glyph glyph-name="two" unicode="2" horiz-adv-x="427" 
d="M114 514q16 32 45.5 52.5t69.5 20.5q19 0 37.5 -5.5t33 -17.5t23.5 -30.5t9 -44.5q0 -49 -30.5 -103t-74.5 -104.5t-92.5 -95t-84.5 -76.5v-63h327v48h-279q38 35 86 80.5t90.5 97.5t71.5 108t29 113q0 32 -11.5 58.5t-32 45t-47 28.5t-56.5 10q-58 0 -100.5 -34
t-62.5 -88h49z" />
    <glyph glyph-name="three" unicode="3" horiz-adv-x="434" 
d="M95 175h-16q-8 -1 -16.5 -1h-16.5q13 -65 58.5 -101.5t110.5 -36.5q35 0 65.5 13.5t53 37t36 55t13.5 66.5q0 55 -34 95t-87 48q45 22 73 59.5t28 88.5q0 28 -10.5 53t-29 44t-43 30t-51.5 11q-57 0 -101 -34t-61 -90h49q16 33 46 53t66 20t63 -25.5t27 -63.5
q0 -32 -11.5 -55t-30.5 -38t-44.5 -22t-53.5 -9v-48q27 -1 55 -7.5t51.5 -20t38.5 -35.5t15 -54q0 -25 -10 -47t-27.5 -38t-39.5 -25.5t-46 -9.5q-41 0 -75 23t-45 64z" />
    <glyph glyph-name="four" unicode="4" horiz-adv-x="447" 
d="M294 227h-208l208 364v-364zM339 46v130h64v51h-64v394h-77l-220 -384l13 -61h239v-130h45z" />
    <glyph glyph-name="five" unicode="5" horiz-adv-x="439" 
d="M118 327q22 14 42.5 22.5t46.5 8.5q31 0 52.5 -11.5t35 -31t19.5 -45t6 -54.5q0 -60 -36 -95t-94 -35q-35 0 -61.5 22t-41.5 53h-54q6 -28 21 -51t36 -39.5t47 -25.5t53 -9q39 0 71 13.5t55 37.5t35.5 57.5t12.5 72.5q0 36 -10 69.5t-29.5 59.5t-48.5 41.5t-67 15.5
q-23 0 -44 -11t-38 -25v203h221v51h-269v-266z" />
    <glyph glyph-name="six" unicode="6" horiz-adv-x="440" 
d="M224 367q28 0 51 -11t39.5 -30t25.5 -44t9 -52t-9.5 -52.5t-27 -45t-41 -31.5t-51.5 -12q-29 0 -52.5 12t-39.5 31.5t-24.5 45t-8.5 53.5q0 27 10.5 51.5t28 43t41 30t49.5 11.5zM100 347q17 121 81 180.5t182 59.5v43q-5 1 -10.5 1h-11.5q-80 0 -136 -29.5t-91 -79.5
t-51 -116t-16 -140q0 -43 8.5 -84.5t28.5 -74t53 -52t82 -19.5q38 0 70.5 16.5t56 43.5t36.5 62t13 72q0 38 -13 70.5t-36 56.5t-54.5 38t-67.5 14q-34 0 -67.5 -18.5t-56.5 -43.5z" />
    <glyph glyph-name="seven" unicode="7" horiz-adv-x="409" 
d="M85 46h48q56 131 112 259.5t112 259.5v56h-298v-46h253z" />
    <glyph glyph-name="eight" unicode="8" horiz-adv-x="451" 
d="M101 205q0 28 10 50.5t27.5 39t40.5 25.5t50 9q26 0 49.5 -9t40.5 -25.5t27 -39t10 -50.5q0 -58 -37 -88.5t-91 -30.5t-90.5 31t-36.5 88zM126 485q0 46 30.5 71t73.5 25q42 0 72.5 -25.5t30.5 -71.5t-28.5 -78t-75.5 -32q-48 0 -75.5 32t-27.5 79zM158 354
q-23 -7 -42.5 -23t-34 -37t-23 -45.5t-8.5 -48.5q0 -37 15 -67t40 -51.5t57 -33.5t66 -12q35 0 67 11.5t57 33.5t40 52.5t15 67.5q0 25 -8 49t-22 44.5t-33.5 36t-42.5 23.5q35 24 56 56t21 77q0 32 -12 58.5t-32 45.5t-47 29.5t-57 10.5q-31 0 -58 -11t-47.5 -30.5
t-32 -46.5t-11.5 -59q0 -41 23 -74t54 -56z" />
    <glyph glyph-name="nine" unicode="9" horiz-adv-x="436" 
d="M217 300q-27 0 -50 11t-39.5 30t-26 44t-9.5 52t10 52.5t27.5 45t41 31.5t51.5 12q29 0 52.5 -12t39.5 -31.5t24.5 -45t8.5 -53.5q0 -27 -10.5 -51.5t-28.5 -43t-41.5 -30t-49.5 -11.5zM47 437q0 -37 13 -70t36 -57t54.5 -38t67.5 -14q34 0 67.5 18.5t55.5 43.5
q-14 -111 -72.5 -173t-163.5 -67h-27q1 -11 1 -21.5v-21.5q5 -1 10.5 -1h10.5q81 0 137 29.5t91 79.5t51 116.5t16 139.5q0 44 -8.5 85t-28.5 73.5t-53 52t-82 19.5q-38 0 -70.5 -16t-56 -43t-36.5 -62t-13 -73z" />
    <glyph glyph-name="colon" unicode=":" horiz-adv-x="223" 
d="M111 417q-16 0 -26 -13t-10 -28t9.5 -28.5t26.5 -13.5t27 13t10 29t-10.5 28.5t-26.5 12.5zM75 72q0 -16 9.5 -29t26.5 -13t27 13t10 29t-10.5 28.5t-26.5 12.5t-26 -13t-10 -28z" />
    <glyph glyph-name="semicolon" unicode=";" horiz-adv-x="215" 
d="M105 97q-11 -45 -23.5 -89.5t-23.5 -90.5h38l60 180h-41h-10zM114 328q16 0 26 13.5t10 28.5t-10 28.5t-26 13.5q-17 0 -27 -13t-10 -29t10 -29t27 -13z" />
    <glyph glyph-name="less" unicode="&#x3c;" horiz-adv-x="500" 
d="M70 313v-56l360 -166v44l-327 150l327 151v44q-82 -38 -163.5 -76t-164.5 -76z" />
    <glyph glyph-name="equal" unicode="=" horiz-adv-x="519" 
d="M71 332h377v38h-377v-38zM448 197v38h-377v-38h377z" />
    <glyph glyph-name="greater" unicode="&#x3e;" horiz-adv-x="503" 
d="M432 257v56l-361 167v-44q82 -38 163.5 -75.5t163.5 -75.5l-327 -150v-44z" />
    <glyph glyph-name="question" unicode="?" horiz-adv-x="417" 
d="M197 585q40 0 66.5 -27.5t26.5 -68.5q0 -34 -15 -57t-35 -45q-13 -15 -27 -30.5t-25.5 -35t-19 -44.5t-8.5 -58h43q3 46 21.5 73.5t41.5 51.5q13 14 25 28t21.5 31.5t15.5 39.5t6 51t-10.5 54.5t-29 45.5t-43 31.5t-53.5 11.5t-52.5 -11t-41 -29.5t-29.5 -43t-18 -51.5
q12 -4 17 -5.5t7.5 -2t5.5 -1.5l12 -4q5 18 13 35.5t20.5 31t28.5 21.5t36 8zM180 41q17 0 26.5 13.5t9.5 28.5q0 16 -9.5 29.5t-26.5 13.5t-27 -13t-10 -30q0 -16 10 -29t27 -13z" />
    <glyph glyph-name="at" unicode="@" horiz-adv-x="622" 
d="M202 282q0 24 9 54.5t25 57.5t38.5 46t49.5 19q32 0 47.5 -21.5t15.5 -52.5q0 -26 -11 -55.5t-29.5 -55t-43.5 -42.5t-53 -17q-27 0 -37.5 21.5t-10.5 45.5zM405 430q-11 30 -30 48.5t-52 18.5q-37 0 -66.5 -21.5t-49.5 -54t-30.5 -70.5t-10.5 -71q0 -44 20.5 -73.5
t66.5 -29.5q16 0 31 6.5t29 16t26 21.5t22 23q5 -26 19.5 -46.5t43.5 -20.5q36 0 63 22t45 54.5t27.5 70t9.5 68.5q0 52 -16 96.5t-46 77.5t-72 51.5t-94 18.5q-65 0 -118.5 -25.5t-91 -69t-58 -101t-20.5 -121.5q0 -60 18.5 -112.5t52.5 -91.5t83 -61.5t110 -22.5
q60 0 114 27t94 72l-28 10q-39 -35 -85.5 -54.5t-99.5 -19.5q-54 0 -95.5 21t-70 56.5t-43 82.5t-14.5 99q0 56 18.5 105t52 86.5t80 59t102.5 21.5q45 0 81 -15.5t61 -43.5t38 -65.5t13 -82.5q0 -22 -7.5 -52t-22 -57t-35 -45.5t-47.5 -18.5q-16 0 -20.5 13t-4.5 25
q0 23 6 50.5t15 55t19.5 54.5t19.5 49l-30 16z" />
    <glyph glyph-name="A" unicode="A" horiz-adv-x="495" 
d="M133 245l114 324l115 -324h-229zM432 46h45l-203 575h-53l-203 -575h44l52 148h266z" />
    <glyph glyph-name="B" unicode="B" horiz-adv-x="485" 
d="M271 327q23 0 44.5 -10t38 -27t26 -38.5t9.5 -45.5q0 -37 -12 -59t-32 -34t-47.5 -16t-57.5 -4q-27 0 -54 0.5t-55 0.5v233h140zM238 574q30 0 56 -3t45 -14t30 -32.5t11 -58.5q0 -48 -32.5 -73t-76.5 -25h-140v205q27 0 53.5 0.5t53.5 0.5zM238 46q42 0 79.5 6t66 23.5
t45 49t16.5 81.5q0 24 -9 46.5t-24.5 41.5t-35.5 32.5t-42 19.5q21 3 39.5 14t32.5 27.5t22 36.5t8 42q0 48 -16 78.5t-43 47.5t-63 23.5t-76 6.5q-39 0 -75.5 -0.5t-80.5 -0.5v-575h156z" />
    <glyph glyph-name="C" unicode="C" horiz-adv-x="502" 
d="M103 332q0 45 10.5 90t33.5 81t58.5 58.5t86.5 22.5q40 0 75.5 -14t64.5 -43l29 36q-33 35 -77 54t-92 19q-60 0 -104.5 -27t-74.5 -70.5t-44.5 -97.5t-14.5 -109q0 -57 15.5 -111.5t46.5 -96.5t77.5 -67.5t108.5 -25.5q48 0 90 21.5t74 56.5l-29 36q-26 -26 -61.5 -44
t-73.5 -18q-52 0 -90 21t-62 55.5t-35.5 79.5t-11.5 93z" />
    <glyph glyph-name="D" unicode="D" horiz-adv-x="552" 
d="M265 571q48 0 84.5 -20.5t61.5 -54.5t37.5 -76.5t12.5 -87.5q0 -43 -12.5 -85.5t-37 -76t-60.5 -54.5t-83 -21h-138v476h135zM222 46q13 1 25.5 1h25.5q57 0 99.5 25.5t71.5 66.5t43.5 92t14.5 103q0 53 -15 104t-45 91.5t-73.5 65.5t-100.5 25h-24.5t-24.5 1h-135v-575
h138z" />
    <glyph glyph-name="E" unicode="E" 
d="M412 621h-320v-575h320v51h-276v217h234v51h-234v205h276v51z" />
    <glyph glyph-name="F" unicode="F" horiz-adv-x="455" 
d="M381 356h-245v214h275v51h-320v-575h45v258h245v52z" />
    <glyph glyph-name="G" unicode="G" horiz-adv-x="524" 
d="M297 584q42 0 79 -14t67 -43q2 2 5.5 7t8 11t8.5 11t6 7q-35 33 -80 53t-94 20q-61 0 -107 -26.5t-77 -69.5t-46.5 -97.5t-15.5 -110.5q0 -59 16.5 -113.5t49 -96t80.5 -66.5t111 -25q51 0 95.5 22t77.5 60v252h-154v-51h113v-175q-27 -25 -61 -40.5t-71 -15.5
q-53 0 -92.5 20t-66 54.5t-40 79.5t-13.5 95q0 47 12.5 92t37.5 80.5t62.5 57.5t88.5 22z" />
    <glyph glyph-name="H" unicode="H" horiz-adv-x="569" 
d="M137 621h-46v-575h45v258h296v-258h47v575h-47v-265h-296q0 25 0.5 60t0.5 72.5v72.5v60z" />
    <glyph glyph-name="I" unicode="I" horiz-adv-x="233" 
d="M140 621h-23h-24v-575h46v288q1 72 1 143.5v143.5z" />
    <glyph glyph-name="J" unicode="J" horiz-adv-x="361" 
d="M285 620h-44v-406q0 -23 -3.5 -47.5t-13.5 -45t-27.5 -33.5t-46.5 -13q-31 0 -54 21.5t-33 50.5l-39 -12q6 -21 18 -40.5t28.5 -34.5t36.5 -23.5t43 -8.5q38 0 64 17t41.5 43.5t22.5 59.5t7 66v406z" />
    <glyph glyph-name="K" unicode="K" horiz-adv-x="494" 
d="M86 621v-575h50v286l264 -286h63q-37 43 -76 84t-78 83l-58 62t-57 63l264 283h-65l-257 -276v276h-50z" />
    <glyph glyph-name="L" unicode="L" horiz-adv-x="410" 
d="M89 621v-575h283v51h-237v524h-46z" />
    <glyph glyph-name="M" unicode="M" horiz-adv-x="681" 
d="M329 100h25q48 124 98 246t101 244v-544h44v575h-86l-170 -428l-169 428h-85v-575h43v544z" />
    <glyph glyph-name="N" unicode="N" horiz-adv-x="582" 
d="M434 46h64v575h-41v-530l-301 530h-67v-575h41v531z" />
    <glyph glyph-name="O" unicode="O" horiz-adv-x="607" 
d="M302 636q-58 0 -104 -27t-78.5 -70.5t-49.5 -97.5t-17 -108t17 -108t49.5 -97t78.5 -70t104 -27t104.5 27t78.5 70t49.5 97t17.5 108t-17.5 108.5t-49.5 97.5t-78.5 70t-104.5 27zM302 585q49 0 87.5 -22.5t65.5 -58.5t41 -81t14 -90t-14.5 -90t-41.5 -81t-65.5 -58
t-86.5 -22t-86.5 22.5t-65.5 58t-41.5 80.5t-14.5 90t14.5 90t41.5 81t65.5 58.5t86.5 22.5z" />
    <glyph glyph-name="P" unicode="P" horiz-adv-x="470" 
d="M139 573q9 0 18 0.5t18 0.5h71q30 0 56 -3t45 -14t30 -32.5t11 -58.5q0 -53 -27 -87.5t-82 -34.5h-140v229zM139 294q25 0 50 -0.5t50 -0.5h25.5t25.5 1q38 0 66.5 13.5t48 37t29.5 54.5t10 67q0 48 -16 78t-43 47.5t-63 24t-76 6.5h-63q-23 -1 -46.5 -1h-46.5v-575h49
v248z" />
    <glyph glyph-name="Q" unicode="Q" horiz-adv-x="617" 
d="M92 337q0 47 16 91t44.5 78.5t68.5 55.5t88 21t88 -21t68.5 -55.5t44.5 -78.5t16 -91q0 -69 -35 -129.5t-93 -95.5l-39 69h-55q13 -21 25 -42.5t24 -43.5q-10 -2 -19 -3t-19 -1q-46 0 -87 20t-71 54t-47.5 78.5t-17.5 93.5zM309 632q-58 0 -106 -25t-82.5 -66
t-53.5 -94.5t-19 -109.5t19 -109t53.5 -94.5t82.5 -66.5t106 -25q33 0 68 11l57 -100h54q-17 29 -33 59t-33 59q68 42 107.5 113.5t39.5 152.5q0 56 -19 109.5t-53 94.5t-82 66t-106 25z" />
    <glyph glyph-name="R" unicode="R" horiz-adv-x="466" 
d="M142 573q9 0 17.5 0.5t17.5 0.5h71q30 0 56.5 -3t45.5 -14t30 -32.5t11 -58.5q0 -51 -31 -75.5t-78 -24.5h-140v207zM292 321q33 1 61 10.5t49 27.5t33 44.5t12 62.5q0 48 -16 78t-43.5 47.5t-63.5 24t-76 6.5h-78q-20 -1 -39 -1h-39v-575h50v275h98l149 -275h50z" />
    <glyph glyph-name="S" unicode="S" horiz-adv-x="426" 
d="M47 101q30 -34 72.5 -52t87.5 -18q36 0 67 11.5t54.5 32.5t37 51.5t13.5 68.5q0 39 -13 65t-34 43.5t-47.5 29t-53.5 21.5q-25 9 -48 19t-41 24t-29 34.5t-11 50.5q0 23 9.5 41.5t25.5 32t36 21t41 7.5q32 0 62 -11.5t53 -34.5l36 38q-29 30 -68.5 44.5t-80.5 14.5
q-34 0 -64 -11.5t-52.5 -32.5t-35.5 -50.5t-13 -65.5q0 -45 15.5 -73.5t39.5 -47t53.5 -30t58.5 -22.5q22 -8 41.5 -17.5t34.5 -22t23.5 -30.5t8.5 -44q0 -28 -10 -48t-27 -33t-39.5 -19t-46.5 -6q-32 0 -65.5 16t-54.5 41z" />
    <glyph glyph-name="T" unicode="T" horiz-adv-x="411" 
d="M184 572v-526h44v526h160v49h-365v-49h161z" />
    <glyph glyph-name="U" unicode="U" horiz-adv-x="534" 
d="M122 620h-42v-362q0 -45 11 -86t34 -72.5t58 -50.5t84 -19t84 19t58 50.5t34 72.5t11 86v362h-42q0 -94 2 -187t-2 -187q-1 -33 -10.5 -63t-27.5 -52.5t-44.5 -36t-62.5 -13.5t-62.5 13.5t-44.5 36.5t-27 52.5t-11 62.5v374z" />
    <glyph glyph-name="V" unicode="V" horiz-adv-x="480" 
d="M17 621q23 -68 45 -135t45 -136q25 -76 50 -151.5t51 -152.5h47q24 68 48.5 135t49.5 136q27 76 54.5 151.5t54.5 152.5h-47q-18 -51 -36.5 -101.5t-37.5 -101.5q-28 -76 -55.5 -151.5t-54.5 -152.5l-166 507h-48z" />
    <glyph glyph-name="W" unicode="W" horiz-adv-x="712" 
d="M208 46q17 59 33.5 117t33.5 117l42 146l42 146l136 -526h45l146 575h-43l-127 -508l-126 508h-62q-13 -48 -25.5 -95t-26.5 -95q-22 -79 -43.5 -158t-43.5 -159l-121 507h-43l137 -575h46z" />
    <glyph glyph-name="X" unicode="X" 
d="M208 346q-5 -7 -8.5 -14t-7.5 -14l-161 -272h52q29 50 58.5 99t58.5 99l33 57l147 -255h54l-174 300l162 275h-52q-34 -57 -67.5 -114.5t-68.5 -114.5l-131 229h-54q40 -69 79 -137.5t80 -137.5z" />
    <glyph glyph-name="Y" unicode="Y" horiz-adv-x="422" 
d="M234 46v245l169 330h-52q-49 -100 -100 -200q-19 -40 -40 -80l-140 280h-51l167 -330v-245h47z" />
    <glyph glyph-name="Z" unicode="Z" horiz-adv-x="426" 
d="M341 570l-301 -465v-59h357v51h-315l311 465v59h-338v-51h286z" />
    <glyph glyph-name="bracketleft" unicode="[" horiz-adv-x="221" 
d="M180 -93v31h-75v666h75v31h-108v-728h108z" />
    <glyph glyph-name="backslash" unicode="\" horiz-adv-x="295" 
d="M46 660l-30 -15l105 -288q32 -88 64 -175.5t64 -176.5l31 15z" />
    <glyph glyph-name="bracketright" unicode="]" horiz-adv-x="213" 
d="M40 -93h108v728h-108v-31h75v-666h-75v-31z" />
    <glyph glyph-name="asciicircum" unicode="^" horiz-adv-x="518" 
d="M234 634q-37 -85 -73 -170t-74 -170h38q7 16 13.5 31.5t13.5 30.5q27 63 54 125.5t53 125.5l133 -313h39l-147 340h-25h-25z" />
    <glyph glyph-name="underscore" unicode="_" horiz-adv-x="378" 
d="M12 -107h354v28h-354v-28z" />
    <glyph glyph-name="grave" unicode="`" horiz-adv-x="199" 
d="M72 648h-64q11 -12 21.5 -24t21.5 -23l42 -48h45z" />
    <glyph glyph-name="braceleft" unicode="{" horiz-adv-x="257" 
d="M214 293q-35 2 -49.5 33t-18 71.5t-0.5 82t3 64.5q0 52 -27 72t-75 22v-34q39 -2 53.5 -22.5t14.5 -56.5q0 -32 -2 -66t0.5 -67t13 -63.5t34.5 -56.5q-24 -25 -34 -55.5t-13 -63t-1 -65.5t2 -65q0 -38 -15 -59t-53 -24v-34q54 2 78 26t24 79q0 24 -3 64t0.5 78.5t18 67
t49.5 30.5v42z" />
    <glyph glyph-name="bar" unicode="|" horiz-adv-x="175" 
d="M104 -36v694h-33v-694h33z" />
    <glyph glyph-name="asciitilde" unicode="~" horiz-adv-x="539" 
d="M91 277l27 -18q27 41 76 41q20 0 38.5 -8t37.5 -19q21 -11 43.5 -21t46.5 -10q12 0 24.5 6t24 15.5t21 20t16.5 19.5l-25 21q-14 -15 -31.5 -24.5t-37.5 -9.5q-19 0 -37 8.5t-38 19.5t-40.5 19t-43.5 8q-34 0 -59.5 -20t-42.5 -48z" />
    <glyph glyph-name="Agrave" unicode="&#xc0;" horiz-adv-x="495" 
d="M133 254l114 324l115 -324h-229zM221 630q-24 -69 -48 -136t-48 -135l-54 -152t-53 -152h44l16 44l16 44q5 15 10 29.5t10 29.5h266l52 -147h45l-203 575h-53zM149 785q23 -24 44.5 -48.5t44.5 -48.5h34l-67 97h-56z" />
    <glyph glyph-name="Aacute" unicode="&#xc1;" horiz-adv-x="495" 
d="M133 254l114 324l115 -324h-229zM221 630q-24 -69 -48 -136t-48 -135l-54 -152t-53 -152h44l16 44l16 44q5 15 10 29.5t10 29.5h266l52 -147h45l-203 575h-53zM251 688q23 25 45 49t45 48h-57l-67 -97h34z" />
    <glyph glyph-name="Acircumflex" unicode="&#xc2;" horiz-adv-x="495" 
d="M133 254l114 324l115 -324h-229zM221 630q-24 -69 -48 -136t-48 -135l-54 -152t-53 -152h44l16 44l16 44q5 15 10 29.5t10 29.5h266l52 -147h45l-203 575h-53zM305 688h34l-67 97h-54l-67 -97h33l61 85z" />
    <glyph glyph-name="Adieresis" unicode="&#xc4;" horiz-adv-x="495" 
d="M362 253h-229l114 324zM62 54q8 23 16 44.5t16 43.5l10 30l10 30h266l52 -148h45l-203 575h-53q-24 -68 -48 -135t-48 -136q-27 -76 -54 -151.5t-53 -152.5h44zM130 733q0 -15 10 -27t25 -12q14 0 23.5 12.5t9.5 26.5t-9 26.5t-24 12.5q-16 0 -25.5 -12.5t-9.5 -26.5z
M284 733q0 -15 9.5 -27t25.5 -12q14 0 23.5 12.5t9.5 26.5t-9 26.5t-24 12.5q-16 0 -25.5 -12.5t-9.5 -26.5z" />
    <glyph glyph-name="AE" unicode="&#xc6;" horiz-adv-x="730" 
d="M207 240l174 330v-330h-174zM428 97v217h231v51h-231v205h250v51h-306q-78 -145 -157 -288.5t-160 -286.5h41l88 154h199v-154h295v51h-250z" />
    <glyph glyph-name="Egrave" unicode="&#xc8;" 
d="M412 55v51h-276v217h234v51h-234v204h276v52h-320v-575h320zM238 688h12h22l-67 97h-56q23 -24 44.5 -48.5t44.5 -48.5z" />
    <glyph glyph-name="Eacute" unicode="&#xc9;" 
d="M370 323v51h-234v204h276v52h-320v-575h320v51h-276v217h234zM251 688q23 25 45 49t45 48h-57l-67 -97h34z" />
    <glyph glyph-name="Ecircumflex" unicode="&#xca;" 
d="M228 785l-67 -97h33l60 85l61 -85h33l-66 97h-54zM412 55v51h-276v217h234v51h-234v204h276v52h-320v-575h320z" />
    <glyph glyph-name="Edieresis" unicode="&#xcb;" 
d="M412 54v51h-276v217h234v51h-234v205h276v51h-320v-575h320zM337 694q15 0 24 12.5t9 26.5t-9 26.5t-24 12.5q-16 0 -25 -12.5t-9 -26.5q0 -15 9.5 -27t24.5 -12zM183 694q15 0 24 12.5t9 26.5t-9 26.5t-24 12.5t-24.5 -12.5t-9.5 -26.5q0 -15 9.5 -27t24.5 -12z" />
    <glyph glyph-name="Iacute" unicode="&#xcd;" horiz-adv-x="233" 
d="M140 630h-47v-575h46q0 144 0.5 287t0.5 288zM200 785h-57l-66 -97h33q23 25 45 49t45 48z" />
    <glyph glyph-name="Icircumflex" unicode="&#xce;" horiz-adv-x="233" 
d="M140 630h-47v-575h46q0 144 0.5 287t0.5 288zM89 785l-67 -97h33l60 85l61 -85h33l-66 97h-54z" />
    <glyph glyph-name="Idieresis" unicode="&#xcf;" horiz-adv-x="233" 
d="M140 628h-47v-575h46q0 145 0.5 288t0.5 287zM196 681q15 0 24.5 12.5t9.5 26.5t-9.5 27t-24.5 13q-16 0 -25 -12.5t-9 -27.5t9.5 -27t24.5 -12zM42 681q15 0 24.5 12.5t9.5 26.5t-9.5 27t-24.5 13t-24.5 -12.5t-9.5 -27.5q0 -14 10 -26.5t24 -12.5z" />
    <glyph glyph-name="Eth" unicode="&#xd0;" horiz-adv-x="549" 
d="M259 571q48 0 85.5 -20t63 -53.5t39 -76.5t13.5 -89q0 -44 -13 -86.5t-38.5 -76t-62.5 -54t-84 -20.5h-141v213h89v39h-89v224h138zM75 308v-262l192 1q57 0 101 25t74 65.5t45.5 92t15.5 104.5q0 54 -16 105.5t-46.5 91.5t-75.5 64.5t-103 24.5q-47 0 -93.5 0.5
t-93.5 0.5v-274h-45v-39h45z" />
    <glyph glyph-name="Ntilde" unicode="&#xd1;" horiz-adv-x="607" 
d="M130 582q32 -55 55.5 -96.5t44 -77.5t40.5 -69.5t43 -74t52 -91.5t69 -120h64v575h-41v-530l-301 530h-67v-575h41v529zM209 709q7 11 18.5 18t24.5 9h10q12 0 24 -4.5t23 -10.5t22.5 -12t23.5 -9q2 0 5 -0.5t5 -0.5q24 0 39.5 16.5t23.5 32.5h-14q-18 -27 -49 -27
q-13 0 -24.5 5t-22.5 11.5t-22.5 12.5t-23.5 8q-3 0 -5.5 0.5t-5.5 0.5q-25 0 -40.5 -13.5t-25.5 -36.5h14z" />
    <glyph glyph-name="Oacute" unicode="&#xd3;" horiz-adv-x="610" 
d="M304 594q49 0 87.5 -22.5t65.5 -58.5t41 -81t14 -90t-14 -90t-41 -81t-65.5 -58.5t-87.5 -22.5q-48 0 -86.5 22.5t-65 58.5t-41 81t-14.5 90t14 90t41 81t65.5 58.5t86.5 22.5zM304 39q59 0 105 27t78.5 70t49.5 97.5t17 108.5t-17 108.5t-49.5 97.5t-78.5 70t-105 27
q-58 0 -104 -27t-78.5 -70.5t-49.5 -97.5t-17 -108t17.5 -108.5t49.5 -97.5t78 -70t104 -27zM312 701q22 25 44 49t45 48h-56l-67 -97h34z" />
    <glyph glyph-name="Ocircumflex" unicode="&#xd4;" horiz-adv-x="610" 
d="M304 593q49 0 87.5 -22.5t65.5 -58.5t41 -81t14 -90t-14 -90t-41 -80.5t-65.5 -58t-87.5 -22.5q-48 0 -86.5 22.5t-65 58t-41 80.5t-14.5 90t14 90t41 81t65.5 58.5t86.5 22.5zM304 39q59 0 105 27t78.5 70t49.5 97t17 108t-17 108.5t-49.5 98t-78.5 70.5t-105 27
q-58 0 -104 -27t-78.5 -70.5t-49.5 -98t-17 -108.5t17.5 -108t49.5 -97t78 -70t104 -27zM367 699h33l-66 97h-54l-67 -97h33l60 84z" />
    <glyph glyph-name="Odieresis" unicode="&#xd6;" horiz-adv-x="610" 
d="M512 340q0 -45 -14 -90t-41 -81t-65.5 -58t-87.5 -22q-48 0 -86.5 22.5t-65 58t-41 80.5t-14.5 90t14 90t41 81t65.5 58.5t86.5 22.5q49 0 87.5 -22.5t65.5 -58.5t41 -81t14 -90zM55 340q0 -54 17.5 -108t49.5 -97t78 -70t104 -27q59 0 105 27t78.5 70t49.5 97t17 108
t-17 108.5t-49.5 97.5t-78.5 70t-105 27q-58 0 -104 -27t-78.5 -70.5t-49.5 -97.5t-17 -108zM200 732q0 -14 9.5 -26.5t24.5 -12.5t24.5 12.5t9.5 26.5t-9.5 26.5t-24.5 12.5t-24.5 -12.5t-9.5 -26.5zM354 732q0 -15 9.5 -27t24.5 -12t24.5 12.5t9.5 26.5t-9.5 26.5
t-24.5 12.5q-16 0 -25 -12.5t-9 -26.5z" />
    <glyph glyph-name="Oslash" unicode="&#xd8;" horiz-adv-x="610" 
d="M304 585q19 0 36.5 -4.5t34.5 -11.5l-169 -459q-51 39 -80 98t-29 125q0 45 14 90t41 81t65.5 58.5t86.5 22.5zM405 555q49 -40 78 -99t29 -123q0 -45 -14 -90t-41 -81t-65.5 -58t-87.5 -22q-17 0 -34.5 4t-34.5 10zM218 49q21 -8 42.5 -13.5t43.5 -5.5q59 0 105 27
t78.5 70t49.5 97.5t17 108.5q0 39 -9 77t-25.5 73t-41 65t-56.5 52l30 83l-29 14l-31 -80q-20 8 -42.5 13.5t-45.5 5.5q-58 0 -104 -27t-78.5 -70.5t-49.5 -97.5t-17 -108q0 -78 35 -151t98 -118l-32 -89l30 -14z" />
    <glyph glyph-name="Ugrave" unicode="&#xd9;" horiz-adv-x="534" 
d="M80 267q0 -45 11 -86.5t34 -73t58 -50.5t84 -19t84 19t58 50.5t34 73t11 86.5v362h-42q0 -60 1 -120.5t1 -120.5v-67t-2 -67q-1 -33 -10.5 -62.5t-27.5 -52t-44.5 -36t-62.5 -13.5q-31 0 -55.5 10.5t-42.5 29t-28.5 43.5t-15.5 53q-1 7 -1.5 14t-1.5 14v375h-42v-362z
M267 687h33l-67 98h-56q23 -25 45 -49.5t45 -48.5z" />
    <glyph glyph-name="Uacute" unicode="&#xda;" horiz-adv-x="534" 
d="M80 267q0 -45 11 -86.5t34 -73t58 -50.5t84 -19t84 19t58 50.5t34 73t11 86.5v362h-42q0 -63 1 -125t1 -125v-62.5t-2 -62.5q-3 -32 -12 -62t-26.5 -52.5t-43.5 -36t-63 -13.5t-63.5 13.5t-43.5 36t-26 52.5t-12 62v375h-42v-362zM285 687q23 25 45 49.5t45 48.5h-56
l-67 -98h33z" />
    <glyph glyph-name="Yacute" unicode="&#xdd;" horiz-adv-x="422" 
d="M350 630q-25 -51 -49.5 -100.5t-50.5 -99.5q-10 -20 -19.5 -40t-20.5 -40l-140 280h-51l168 -331v-244h46v244l169 331h-52zM227 688q23 25 45 49t45 48h-57l-66 -97h33z" />
    <glyph glyph-name="ydieresis" unicode="&#xff;" horiz-adv-x="430" 
d="M24 629l167 -330v-245h47v245l169 330h-52q-25 -51 -50 -100t-50 -100q-21 -40 -40 -80l-140 280h-51zM292 694q15 0 24.5 12.5t9.5 26.5t-9.5 26.5t-24.5 12.5q-16 0 -25 -12.5t-9 -26.5q0 -15 9.5 -27t24.5 -12zM138 772q-15 0 -24.5 -12.5t-9.5 -26.5q0 -15 9.5 -27
t24.5 -12t24.5 12.5t9.5 26.5t-9.5 26.5t-24.5 12.5z" />
    <glyph glyph-name="Euro" unicode="&#x20ac;" horiz-adv-x="485" 
d="M154 403q10 33 26 62.5t38 53t50 38.5t62 18q5 1 9 1h9q19 0 37 -5t35 -13q2 3 2.5 6t2.5 6q5 10 8 19t8 19q-44 23 -93 23h-8.5t-8.5 -1q-46 -3 -83 -22t-65 -50t-47 -70.5t-29 -84.5h-67v-28h62q-1 -11 -2 -23t-1 -24q0 -9 1 -18l2 -18h-62v-28h66q8 -45 26 -84.5
t45.5 -70.5t64 -50t82.5 -22q5 -1 8.5 -1h8.5q25 0 49 6.5t46 17.5l-21 48q-34 -17 -73 -17h-8.5t-8.5 1q-34 3 -62 17.5t-50 38t-37 53.5t-24 63h177v28h-181q-1 6 -1.5 12.5t-1.5 12.5q0 15 1 29.5t4 28.5h179v28h-175z" />
    <glyph glyph-name="quotesinglbase" unicode="&#x201a;" horiz-adv-x="220" 
d="M107 80l-10 -40l-10 -40q-7 -25 -13.5 -50t-12.5 -50h38q6 20 12.5 40t13.5 40q8 25 16.5 50t16.5 50h-51z" />
    <glyph glyph-name="quotedblbase" unicode="&#x201e;" horiz-adv-x="356" 
d="M107 80l-10 -40l-10 -40q-7 -25 -13.5 -50t-12.5 -50h38q6 20 12.5 40t13.5 40q8 25 16.5 50t16.5 50h-51zM235 -100l60 180h-53l-51 -180h44z" />
    <glyph glyph-name="ellipsis" unicode="&#x2026;" horiz-adv-x="678" 
d="M565 13q17 0 27 13t10 29t-10.5 28.5t-26.5 12.5t-26 -13t-10 -28q0 -16 9.5 -29t26.5 -13zM339 13q17 0 27 13t10 29t-10.5 28.5t-26.5 12.5t-26 -13t-10 -28q0 -16 9.5 -29t26.5 -13zM150 55q0 16 -10.5 28.5t-26.5 12.5q-17 0 -26.5 -13t-9.5 -28q0 -16 9.5 -29
t26.5 -13t27 13t10 29z" />
    <glyph glyph-name="Scaron" unicode="&#x160;" horiz-adv-x="414" 
d="M52 109q29 -33 68 -51.5t82 -18.5q36 0 65.5 12t51 34t33.5 52.5t12 66.5q0 39 -12 64.5t-32 43t-45 29.5t-51 22q-23 9 -45 19t-39 24t-27 34t-10 50q0 22 9 41t23.5 32.5t33.5 21t40 7.5q30 0 59 -12t50 -33l33 36q-27 31 -63.5 46t-76.5 15q-33 0 -61.5 -12.5
t-49.5 -34t-32.5 -50.5t-11.5 -63q0 -41 12.5 -68t32 -45.5t44.5 -30.5t50 -22q23 -9 45 -18.5t39 -23t27 -32.5t10 -48q0 -54 -34 -80t-83 -26q-31 0 -63 16t-52 39zM230 696l67 97h-34l-61 -84l-60 84h-33l67 -97h54z" />
    <glyph glyph-name="guilsinglleft" unicode="&#x2039;" horiz-adv-x="500" 
d="M70 313v-56l360 -166v44l-327 150l327 151v44q-82 -38 -163.5 -76t-164.5 -76z" />
    <glyph glyph-name="OE" unicode="&#x152;" horiz-adv-x="664" 
d="M98 333q0 47 16.5 90.5t45.5 76.5t69.5 53t88.5 20v-480q-48 0 -88 20t-69.5 53t-46 76.5t-16.5 90.5zM305 621q-56 0 -102 -24.5t-78.5 -65t-50.5 -92.5t-18 -106t18 -105.5t50.5 -92t78.5 -65t102 -24.5h307v51h-249v217h231v51h-231v205h249v51h-307z" />
    <glyph glyph-name="quoteleft" unicode="&#x2018;" horiz-adv-x="268" 
d="M145 641q-6 -20 -12.5 -40t-13.5 -40q-9 -25 -17.5 -50t-16.5 -50h51q5 20 10.5 40t10.5 40q7 25 13.5 50t12.5 50h-38z" />
    <glyph glyph-name="quoteright" unicode="&#x2019;" horiz-adv-x="268" 
d="M131 641l-10 -40t-11 -40q-6 -25 -12.5 -50t-13.5 -50h38q7 20 13.5 40t13.5 40q8 25 16.5 50t16.5 50h-51z" />
    <glyph glyph-name="quotedblleft" unicode="&#x201c;" horiz-adv-x="397" 
d="M145 641q-6 -20 -12.5 -40t-13.5 -40q-9 -25 -17.5 -50t-16.5 -50h51q5 20 10.5 40t10.5 40q6 25 12.5 50t12.5 50h-37zM266 461l10 40l10 40q7 25 13.5 50t12.5 50h-37q-7 -20 -13.5 -40t-13.5 -40q-8 -25 -16.5 -50t-16.5 -50h51z" />
    <glyph glyph-name="quotedblright" unicode="&#x201d;" horiz-adv-x="397" 
d="M131 641l-10 -40t-11 -40q-6 -25 -12.5 -50t-13.5 -50h38q7 20 13.5 40t13.5 40q8 25 16.5 50t16.5 50h-51zM252 461q6 20 12.5 40t13.5 40q9 25 17.5 50t16.5 50h-52l-10 -40l-10 -40q-7 -25 -13 -50l-12 -50h37z" />
    <glyph glyph-name="bullet" unicode="&#x2022;" horiz-adv-x="295" 
d="M147 434q-32 0 -53 -25.5t-21 -57.5t20 -59t54 -27q17 0 31 7.5t23.5 19.5t15 27.5t5.5 31.5q0 32 -21.5 57.5t-53.5 25.5z" />
    <glyph glyph-name="endash" unicode="&#x2013;" horiz-adv-x="324" 
d="M42 209h239v39h-239v-39z" />
    <glyph glyph-name="emdash" unicode="&#x2014;" horiz-adv-x="436" 
d="M42 209h350v39h-350v-39z" />
    <glyph glyph-name="scaron" unicode="&#x161;" horiz-adv-x="414" 
d="M52 109q29 -33 68 -51.5t82 -18.5q36 0 65.5 12t51 34t33.5 52.5t12 66.5q0 39 -12 64.5t-32 43t-45 29.5t-51 22q-23 9 -45 19t-39 24t-27 34t-10 50q0 22 9 41t23.5 32.5t33.5 21t40 7.5q30 0 59 -12t50 -33l33 36q-27 31 -63.5 46t-76.5 15q-33 0 -61.5 -12.5
t-49.5 -34t-32.5 -50.5t-11.5 -63q0 -41 12.5 -68t32 -45.5t44.5 -30.5t50 -22q23 -9 45 -18.5t39 -23t27 -32.5t10 -48q0 -54 -34 -80t-83 -26q-31 0 -63 16t-52 39zM230 696l67 97h-34l-61 -84l-60 84h-33l67 -97h54z" />
    <glyph glyph-name="guilsinglright" unicode="&#x203a;" horiz-adv-x="503" 
d="M432 257v56l-361 167v-44q82 -38 163.5 -75.5t163.5 -75.5l-327 -150v-44z" />
    <glyph glyph-name="oe" unicode="&#x153;" horiz-adv-x="664" 
d="M98 333q0 47 16.5 90.5t45.5 76.5t69.5 53t88.5 20v-480q-48 0 -88 20t-69.5 53t-46 76.5t-16.5 90.5zM305 621q-56 0 -102 -24.5t-78.5 -65t-50.5 -92.5t-18 -106t18 -105.5t50.5 -92t78.5 -65t102 -24.5h307v51h-249v217h231v51h-231v205h249v51h-307z" />
    <glyph glyph-name="Ydieresis" unicode="&#x178;" horiz-adv-x="424" 
d="M19 629l168 -330v-245h46v245l169 330h-52q-49 -100 -100 -200q-19 -40 -40 -80l-140 280h-51zM292 694q15 0 24.5 12.5t9.5 26.5t-9.5 26.5t-24.5 12.5q-16 0 -25 -12.5t-9 -26.5q0 -15 9.5 -27t24.5 -12zM138 772q-15 0 -24.5 -12.5t-9.5 -26.5q0 -15 9.5 -27t24.5 -12
t24.5 12.5t9.5 26.5t-9.5 26.5t-24.5 12.5z" />
    <glyph glyph-name="exclamdown" unicode="&#xa1;" horiz-adv-x="225" 
d="M91 -144h44v403h-44v-403zM113 355q16 0 25.5 13t9.5 28t-10 28t-25 13q-16 0 -26 -13t-10 -28t9.5 -28t26.5 -13z" />
    <glyph glyph-name="cent" unicode="&#xa2;" horiz-adv-x="456" 
d="M244 68q-29 6 -54 22t-43 39t-28.5 51t-10.5 58q0 31 10.5 59t28.5 50.5t43 38.5t54 22v-340zM264 27q32 4 62 18t52 40q-5 5 -9.5 8.5t-9.5 8.5q-2 2 -4.5 4t-4.5 4q-17 -18 -39.5 -28.5t-46.5 -14.5v342q25 -4 47 -13.5t39 -29.5q6 6 9 8q5 5 9.5 8.5t9.5 8.5
q-23 24 -52.5 39t-61.5 20v52h-20v-52q-38 -6 -69 -25.5t-53.5 -48t-35 -64.5t-12.5 -74t12.5 -73.5t35 -64t53.5 -48t69 -25.5v-52h20v52z" />
    <glyph glyph-name="sterling" unicode="&#xa3;" horiz-adv-x="447" 
d="M385 91h-177v230h119v39h-119v88q0 24 4 48t14.5 42.5t29 30.5t46.5 12q31 0 54 -19t33 -48l40 12q-7 21 -19 40t-28.5 34t-36.5 23.5t-43 8.5q-37 0 -63 -16.5t-42 -43t-23 -59t-7 -65.5v-88h-86v-39h86v-230h-95v-44h313v44z" />
    <glyph glyph-name="yen" unicode="&#xa5;" horiz-adv-x="424" 
d="M403 621h-52l-105 -210q-17 -35 -35 -70l-140 280h-52q19 -37 37.5 -73t37.5 -73q16 -30 31 -60.5t31 -60.5h-94v-37h114l11 -26v-69h-125v-37h125v-139h47v139h126v37h-126v71l13 24h113v37h-93z" />
    <glyph glyph-name="brokenbar" unicode="&#xa6;" horiz-adv-x="175" 
d="M71 -36h33v277h-33v-277zM104 641h-33v-277h33v277z" />
    <glyph glyph-name="section" unicode="&#xa7;" horiz-adv-x="422" 
d="M241 178q-21 7 -41.5 14.5t-37.5 18.5t-28.5 27.5t-13.5 41.5v18q3 26 22 45.5t43 27.5l6 -2l6 -2q20 -6 40 -14t36 -19.5t26.5 -28.5t10.5 -42q0 -5 -1 -7q-2 -29 -21 -49.5t-47 -28.5zM312 555q7 7 13.5 14t13.5 14q-25 24 -56 35.5t-65 11.5q-28 0 -52.5 -10
t-42.5 -27.5t-28.5 -42t-10.5 -54.5q0 -33 15 -58.5t40 -44.5q-24 -20 -40.5 -48t-16.5 -62q0 -32 10.5 -54t27.5 -36.5t38 -24.5t43 -18q21 -7 40 -15t34 -19.5t24 -27.5t9 -40q0 -46 -31.5 -67.5t-72.5 -21.5q-29 0 -55.5 11.5t-45.5 33.5l-26 -27q24 -29 58.5 -42.5
t71.5 -13.5q29 0 54.5 9.5t45 26.5t30.5 42t11 56q0 3 -0.5 6t-0.5 7q-3 29 -18.5 50t-39.5 38q23 19 41.5 47.5t18.5 59.5q0 33 -10.5 55t-27.5 37t-38.5 24.5t-43.5 17.5q-21 8 -40.5 16t-34.5 20t-24 29.5t-9 42.5q0 20 8.5 36t22 27t30.5 17.5t35 6.5q26 0 51 -9t44 -28
z" />
    <glyph glyph-name="copyright" unicode="&#xa9;" horiz-adv-x="600" 
d="M300 600q53 0 95.5 -22.5t73 -60t47 -85.5t16.5 -98t-16.5 -98t-47 -85t-73.5 -59.5t-95 -22.5t-95 22.5t-73.5 59.5t-47 85t-16.5 98t16.5 98t47 85.5t73.5 60t95 22.5zM319 159q30 0 56.5 12t46.5 34l-21 20q-35 -35 -85 -35q-29 0 -51.5 12t-38 31.5t-23.5 45t-8 52.5
q0 26 7.5 51t21.5 45t34 34t46 17q5 1 15 1q50 0 83 -35l20 19q-20 21 -46.5 34t-56.5 13q-4 0 -7.5 -0.5t-8.5 -0.5q-33 -3 -59 -18t-43.5 -38.5t-27 -54t-9.5 -64.5q0 -36 10.5 -67.5t30.5 -55.5t48.5 -38t65.5 -14zM300 636q-59 0 -107.5 -26t-82.5 -68.5t-52.5 -96.5
t-18.5 -111t18.5 -111t53 -96.5t82.5 -68.5t107 -26t107.5 26t82.5 68.5t52.5 96.5t18.5 111t-18.5 111t-52.5 96.5t-82.5 68.5t-107.5 26z" />
    <glyph glyph-name="plusminus" unicode="&#xb1;" horiz-adv-x="474" 
d="M253 231v193h171v39h-171v192h-33v-192h-172v-39h172v-193h33zM80 102h306v38h-306v-38z" />
    <glyph glyph-name="germandbls" unicode="&#xdf;" horiz-adv-x="480" 
d="M111 448q0 33 2 64.5t12.5 56.5t33 40.5t64.5 15.5q40 0 65.5 -20t25.5 -62q0 -22 -8 -45t-21.5 -43t-32 -35.5t-38.5 -22.5q0 -9 0.5 -17.5t1.5 -16.5q31 -1 58.5 -11t48.5 -29t33 -45.5t12 -60.5q0 -30 -10.5 -55t-29 -43t-44 -28t-54.5 -10q-5 0 -10.5 0.5t-10.5 0.5
v-39q19 -4 41 -4q35 0 65 14t52 38t34 55.5t12 66.5q0 32 -10.5 60t-29 50.5t-43.5 39t-54 26.5q37 26 59.5 68t22.5 88q0 63 -39 96t-97 33q-51 0 -81.5 -19.5t-47 -51.5t-21.5 -72.5t-5 -82.5v-400h44v400z" />
    <glyph glyph-name="agrave" unicode="&#xe0;" horiz-adv-x="495" 
d="M133 254l114 324l115 -324h-229zM221 630q-24 -69 -48 -136t-48 -135l-54 -152t-53 -152h44l16 44l16 44q5 15 10 29.5t10 29.5h266l52 -147h45l-203 575h-53zM149 785q23 -24 44.5 -48.5t44.5 -48.5h34l-67 97h-56z" />
    <glyph glyph-name="aacute" unicode="&#xe1;" horiz-adv-x="495" 
d="M133 254l114 324l115 -324h-229zM221 630q-24 -69 -48 -136t-48 -135l-54 -152t-53 -152h44l16 44l16 44q5 15 10 29.5t10 29.5h266l52 -147h45l-203 575h-53zM251 688q23 25 45 49t45 48h-57l-67 -97h34z" />
    <glyph glyph-name="acircumflex" unicode="&#xe2;" horiz-adv-x="495" 
d="M133 254l114 324l115 -324h-229zM221 630q-24 -69 -48 -136t-48 -135l-54 -152t-53 -152h44l16 44l16 44q5 15 10 29.5t10 29.5h266l52 -147h45l-203 575h-53zM305 688h34l-67 97h-54l-67 -97h33l61 85z" />
    <glyph glyph-name="atilde" unicode="&#xe3;" horiz-adv-x="495" 
d="M133 252l114 324l115 -324h-229zM125 358q-27 -77 -54 -152.5t-53 -152.5h44q8 23 16 44.5t16 44.5q5 14 10 29l10 30h266l52 -148h45l-203 575h-53zM338 748q-17 -24 -42 -27q-19 0 -32.5 5.5t-25.5 13.5q-11 6 -22 11t-23 7q-3 1 -7 1q-25 0 -41 -13.5t-25 -36.5h13
q7 11 17.5 17.5t22.5 8.5q4 1 14 1q14 0 27.5 -6t26.5 -13h-1q13 -7 26.5 -12.5t28.5 -5.5q20 0 34.5 16.5t22.5 32.5h-14z" />
    <glyph glyph-name="adieresis" unicode="&#xe4;" horiz-adv-x="495" 
d="M362 253h-229l114 324zM62 54q8 23 16 44.5t16 43.5l10 30l10 30h266l52 -148h45l-203 575h-53q-24 -68 -48 -135t-48 -136q-27 -76 -54 -151.5t-53 -152.5h44zM130 733q0 -15 10 -27t25 -12q14 0 23.5 12.5t9.5 26.5t-9 26.5t-24 12.5q-16 0 -25.5 -12.5t-9.5 -26.5z
M284 733q0 -15 9.5 -27t25.5 -12q14 0 23.5 12.5t9.5 26.5t-9 26.5t-24 12.5q-16 0 -25.5 -12.5t-9.5 -26.5z" />
    <glyph glyph-name="egrave" unicode="&#xe8;" 
d="M412 55v51h-276v217h257v51h-257v204h276v52h-320v-575h320zM238 688h12h22l-67 97h-56q23 -24 44.5 -48.5t44.5 -48.5z" />
    <glyph glyph-name="eacute" unicode="&#xe9;" 
d="M393 323v51h-257v204h276v52h-320v-575h320v51h-276v217h257zM251 688q23 25 45 49t45 48h-57l-67 -97h34z" />
    <glyph glyph-name="ecircumflex" unicode="&#xea;" 
d="M228 785l-67 -97h33l60 85l61 -85h33l-66 97h-54zM412 55v51h-276v217h257v51h-257v204h276v52h-320v-575h320z" />
    <glyph glyph-name="edieresis" unicode="&#xeb;" 
d="M412 54v51h-276v217h257v51h-257v205h276v51h-320v-575h320zM337 694q15 0 24 12.5t9 26.5t-9 26.5t-24 12.5q-16 0 -25 -12.5t-9 -26.5q0 -15 9.5 -27t24.5 -12zM183 694q15 0 24 12.5t9 26.5t-9 26.5t-24 12.5t-24.5 -12.5t-9.5 -26.5q0 -15 9.5 -27t24.5 -12z" />
    <glyph glyph-name="iacute" unicode="&#xed;" horiz-adv-x="233" 
d="M140 630h-47v-575h46q0 144 0.5 287t0.5 288zM200 785h-57l-66 -97h33q23 25 45 49t45 48z" />
    <glyph glyph-name="icircumflex" unicode="&#xee;" horiz-adv-x="233" 
d="M140 630h-47v-575h46q0 144 0.5 287t0.5 288zM89 785l-67 -97h33l60 85l61 -85h33l-66 97h-54z" />
    <glyph glyph-name="idieresis" unicode="&#xef;" horiz-adv-x="233" 
d="M140 629h-47v-575h46q0 145 0.5 287.5t0.5 287.5zM196 694q15 0 24.5 12.5t9.5 26.5t-9 26.5t-25 12.5q-15 0 -24.5 -12.5t-9.5 -26.5q0 -15 9.5 -27t24.5 -12zM42 694q15 0 24.5 12.5t9.5 26.5t-9 26.5t-25 12.5q-15 0 -24.5 -12.5t-9.5 -26.5q0 -15 10 -27t24 -12z" />
    <glyph glyph-name="ntilde" unicode="&#xf1;" horiz-adv-x="607" 
d="M135 586l314 -533h68v575h-44v-528l-312 528h-70v-575h44v533zM209 709q9 15 22.5 21t30.5 6q15 0 28.5 -6t26.5 -13h-1q11 -5 22.5 -10.5t23.5 -7.5q26 0 40.5 13.5t25.5 35.5h-14q-13 -19 -32 -25q-10 -2 -17 -2q-13 0 -25 5t-23.5 12t-23 13t-24.5 7q-3 1 -8 1
q-25 0 -40.5 -13.5t-25.5 -36.5h14z" />
    <glyph glyph-name="oacute" unicode="&#xf3;" horiz-adv-x="610" 
d="M304 594q49 0 87.5 -22.5t65.5 -58.5t41 -81t14 -90t-14 -90t-41 -81t-65.5 -58.5t-87.5 -22.5q-48 0 -86.5 22.5t-65 58.5t-41 81t-14.5 90t14 90t41 81t65.5 58.5t86.5 22.5zM304 39q59 0 105 27t78.5 70t49.5 97.5t17 108.5t-17 108.5t-49.5 97.5t-78.5 70t-105 27
q-58 0 -104 -27t-78.5 -70.5t-49.5 -97.5t-17 -108t17.5 -108.5t49.5 -97.5t78 -70t104 -27zM312 701q5 6 11 12.5t12 13.5q17 18 33 35.5t33 35.5h-56l-67 -97h34z" />
    <glyph glyph-name="ocircumflex" unicode="&#xf4;" horiz-adv-x="610" 
d="M304 593q49 0 87.5 -22.5t65.5 -58.5t41 -81t14 -90t-14 -90t-41 -80.5t-65.5 -58t-87.5 -22.5q-48 0 -86.5 22.5t-65 58t-41 80.5t-14.5 90t14 90t41 81t65.5 58.5t86.5 22.5zM304 39q59 0 105 27t78.5 70t49.5 97t17 108t-17 108.5t-49.5 98t-78.5 70.5t-105 27
q-58 0 -104 -27t-78.5 -70.5t-49.5 -98t-17 -108.5t17.5 -108t49.5 -97t78 -70t104 -27zM367 699h33l-66 97h-54l-67 -97h33l60 84z" />
    <glyph glyph-name="odieresis" unicode="&#xf6;" horiz-adv-x="610" 
d="M512 340q0 -45 -14 -90t-41 -81t-65.5 -58t-87.5 -22q-48 0 -86.5 22.5t-65 58t-41 80.5t-14.5 90t14 90t41 81t65.5 58.5t86.5 22.5q49 0 87.5 -22.5t65.5 -58.5t41 -81t14 -90zM55 340q0 -54 17.5 -108t49.5 -97t78 -70t104 -27q59 0 105 27t78.5 70t49.5 97t17 108
t-17 108.5t-49.5 97.5t-78.5 70t-105 27q-58 0 -104 -27t-78.5 -70.5t-49.5 -97.5t-17 -108zM200 732q0 -14 9.5 -26.5t24.5 -12.5t24.5 12.5t9.5 26.5t-9.5 26.5t-24.5 12.5t-24.5 -12.5t-9.5 -26.5zM354 732q0 -15 9.5 -27t24.5 -12t24.5 12.5t9.5 26.5t-9.5 26.5
t-24.5 12.5q-16 0 -25 -12.5t-9 -26.5z" />
    <glyph glyph-name="divide" unicode="&#xf7;" horiz-adv-x="391" 
d="M42 247v-38h306v38h-306zM161 376q0 -15 9.5 -28.5t26.5 -13.5t27 13t10 29t-10 28.5t-27 12.5q-16 0 -26 -13t-10 -28zM197 30q17 0 27 13t10 29t-10 28.5t-27 12.5q-16 0 -26 -13t-10 -28q0 -16 9.5 -29t26.5 -13z" />
    <glyph glyph-name="oslash" unicode="&#xf8;" horiz-adv-x="610" 
d="M304 585q19 0 36.5 -4.5t34.5 -11.5l-169 -459q-51 39 -80 98t-29 125q0 45 14 90t41 81t65.5 58.5t86.5 22.5zM405 555q49 -40 78 -99t29 -123q0 -45 -14 -90t-41 -81t-65.5 -58t-87.5 -22q-17 0 -34.5 4t-34.5 10zM218 49q21 -8 42.5 -13.5t43.5 -5.5q59 0 105 27
t78.5 70t49.5 97.5t17 108.5q0 39 -9 77t-25.5 73t-41 65t-56.5 52l30 83l-29 14l-31 -80q-20 8 -42.5 13.5t-45.5 5.5q-58 0 -104 -27t-78.5 -70.5t-49.5 -97.5t-17 -108q0 -78 35 -151t98 -118l-32 -89l30 -14z" />
    <glyph glyph-name="uacute" unicode="&#xfa;" horiz-adv-x="534" 
d="M80 267q0 -45 11 -86.5t34 -73t58 -50.5t84 -19t84 19t58 50.5t34 73t11 86.5v362h-42q0 -62 0.5 -123.5t0.5 -123.5v-102q-1 -7 -1 -13v-13q-1 -32 -10.5 -61.5t-27.5 -52.5t-44.5 -36.5t-62.5 -13.5t-63 13.5t-44.5 36.5t-26.5 52.5t-11 61.5t-1.5 64t0.5 64
q0 26 0.5 52.5t0.5 52.5v142h-42v-362zM285 687q23 25 45 49.5t45 48.5h-56l-67 -98h33z" />
    <glyph glyph-name="udieresis" unicode="&#xfc;" horiz-adv-x="534" 
d="M413 382q0 -32 0.5 -64t-1.5 -64q-1 -33 -11 -63t-28 -52.5t-44.5 -36t-61.5 -13.5q-37 0 -63.5 13.5t-43.5 36.5t-26.5 53t-11.5 62q-1 23 -1 45.5v45.5v37q0 9 0.5 18t0.5 19v56v37v116h-42v-362q0 -45 11 -86t34 -72.5t58 -50.5t84 -19t84 19t58 50.5t34 72.5t11 86
v362h-42v-123q0 -18 0.5 -35.5t0.5 -35.5v-52zM353 693q15 0 24 12.5t9 26.5t-9 26.5t-24 12.5q-16 0 -25 -12.5t-9 -26.5q0 -15 9.5 -27t24.5 -12zM199 693q15 0 24 12.5t9 26.5t-9 26.5t-24 12.5t-24.5 -12.5t-9.5 -26.5t9.5 -26.5t24.5 -12.5z" />
    <glyph glyph-name="yacute" unicode="&#xfd;" horiz-adv-x="410" 
d="M345 630q-25 -51 -50 -100.5t-50 -99.5l-20 -40l-20 -40l-140 280h-51l167 -331v-244h47v244l169 331h-52zM222 688q23 25 45 49t45 48h-57l-67 -97h34z" />
    <glyph glyph-name="Ccedilla" unicode="&#xc7;" horiz-adv-x="502" 
d="M295 66q-53 0 -90.5 22t-61.5 58t-35.5 82t-11.5 94q0 44 10.5 87.5t32.5 78.5t56 58.5t80 26.5q5 1 8.5 1h7.5q40 0 75.5 -14.5t64.5 -43.5q2 3 4 5.5t4 4.5q5 7 11 13.5t11 13.5q-34 37 -77 55t-93 18q-60 0 -104.5 -27t-74.5 -70.5t-44.5 -97.5t-14.5 -109
q0 -51 11 -99t34.5 -87.5t61 -67.5t89.5 -40l-40 -66l18 -20q18 7 40 7q14 0 26.5 -4t17.5 -17q2 -8 2 -15q0 -23 -18.5 -40t-40.5 -17q-30 0 -53 18l-8 -12q12 -12 28 -17.5t33 -5.5q32 0 56 19t24 53q0 26 -17 40t-42 14q-11 0 -22.5 -2t-22.5 -4q10 16 19.5 31t19.5 31
q59 0 105.5 20t90.5 59l-29 35q-27 -29 -64 -49t-77 -20z" />
    <glyph glyph-name="ae" unicode="&#xe6;" horiz-adv-x="730" 
d="M207 240l174 330v-330h-174zM428 97v217h231v51h-231v205h250v51h-306q-78 -145 -157 -288.5t-160 -286.5h41l88 154h199v-154h295v51h-250z" />
    <glyph glyph-name="Zcaron" unicode="&#x17d;" horiz-adv-x="433" 
d="M51 630v-52h295l-311 -464v-59h362v51h-317l321 463l1 61h-351zM261 688l67 97h-33l-61 -84l-61 84h-32l67 -97h53z" />
    <glyph glyph-name="a" unicode="a" horiz-adv-x="495" 
d="M133 245l114 324l115 -324h-229zM432 46h45l-203 575h-53l-203 -575h44l52 148h266z" />
    <glyph glyph-name="b" unicode="b" horiz-adv-x="485" 
d="M271 327q23 0 44.5 -10t38 -27t26 -38.5t9.5 -45.5q0 -37 -12 -59t-32 -34t-47.5 -16t-57.5 -4q-27 0 -54 0.5t-55 0.5v233h140zM238 574q30 0 56 -3t45 -14t30 -32.5t11 -58.5q0 -48 -32.5 -73t-76.5 -25h-140v205q27 0 53.5 0.5t53.5 0.5zM238 46q42 0 79.5 6t66 23.5
t45 49t16.5 81.5q0 24 -9 46.5t-24.5 41.5t-35.5 32.5t-42 19.5q21 3 39.5 14t32.5 27.5t22 36.5t8 42q0 48 -16 78.5t-43 47.5t-63 23.5t-76 6.5q-39 0 -75.5 -0.5t-80.5 -0.5v-575h156z" />
    <glyph glyph-name="c" unicode="c" horiz-adv-x="502" 
d="M103 332q0 45 10.5 90t33.5 81t58.5 58.5t86.5 22.5q40 0 75.5 -14t64.5 -43l29 36q-33 35 -77 54t-92 19q-60 0 -104.5 -27t-74.5 -70.5t-44.5 -97.5t-14.5 -109q0 -57 15.5 -111.5t46.5 -96.5t77.5 -67.5t108.5 -25.5q48 0 90 21.5t74 56.5l-29 36q-26 -26 -61.5 -44
t-73.5 -18q-52 0 -90 21t-62 55.5t-35.5 79.5t-11.5 93z" />
    <glyph glyph-name="d" unicode="d" horiz-adv-x="552" 
d="M265 571q48 0 84.5 -20.5t61.5 -54.5t37.5 -76.5t12.5 -87.5q0 -43 -12.5 -85.5t-37 -76t-60.5 -54.5t-83 -21h-138v476h135zM222 46q13 1 25.5 1h25.5q57 0 99.5 25.5t71.5 66.5t43.5 92t14.5 103q0 53 -15 104t-45 91.5t-73.5 65.5t-100.5 25h-24.5t-24.5 1h-135v-575
h138z" />
    <glyph glyph-name="e" unicode="e" 
d="M412 621h-320v-575h320v51h-276v217h234v51h-234v205h276v51z" />
    <glyph glyph-name="f" unicode="f" horiz-adv-x="455" 
d="M381 356h-245v214h275v51h-320v-575h45v258h245v52z" />
    <glyph glyph-name="g" unicode="g" horiz-adv-x="524" 
d="M297 584q42 0 79 -14t67 -43q2 2 5.5 7t8 11t8.5 11t6 7q-35 33 -80 53t-94 20q-61 0 -107 -26.5t-77 -69.5t-46.5 -97.5t-15.5 -110.5q0 -59 16.5 -113.5t49 -96t80.5 -66.5t111 -25q51 0 95.5 22t77.5 60v252h-154v-51h113v-175q-27 -25 -61 -40.5t-71 -15.5
q-53 0 -92.5 20t-66 54.5t-40 79.5t-13.5 95q0 47 12.5 92t37.5 80.5t62.5 57.5t88.5 22z" />
    <glyph glyph-name="h" unicode="h" horiz-adv-x="569" 
d="M137 621h-46v-575h45v258h296v-258h47v575h-47v-265h-296q0 25 0.5 60t0.5 72.5v72.5v60z" />
    <glyph glyph-name="i" unicode="i" horiz-adv-x="233" 
d="M140 621h-23h-24v-575h46v288q1 72 1 143.5v143.5z" />
    <glyph glyph-name="j" unicode="j" horiz-adv-x="361" 
d="M285 620h-44v-406q0 -23 -3.5 -47.5t-13.5 -45t-27.5 -33.5t-46.5 -13q-31 0 -54 21.5t-33 50.5l-39 -12q6 -21 18 -40.5t28.5 -34.5t36.5 -23.5t43 -8.5q38 0 64 17t41.5 43.5t22.5 59.5t7 66v406z" />
    <glyph glyph-name="k" unicode="k" horiz-adv-x="494" 
d="M86 621v-575h50v286l264 -286h63q-37 43 -76 84t-78 83l-58 62t-57 63l264 283h-65l-257 -276v276h-50z" />
    <glyph glyph-name="l" unicode="l" horiz-adv-x="410" 
d="M89 621v-575h283v51h-237v524h-46z" />
    <glyph glyph-name="m" unicode="m" horiz-adv-x="681" 
d="M329 100h25q48 124 98 246t101 244v-544h44v575h-86l-170 -428l-169 428h-85v-575h43v544z" />
    <glyph glyph-name="n" unicode="n" horiz-adv-x="582" 
d="M434 46h64v575h-41v-530l-301 530h-67v-575h41v531z" />
    <glyph glyph-name="o" unicode="o" horiz-adv-x="607" 
d="M302 636q-58 0 -104 -27t-78.5 -70.5t-49.5 -97.5t-17 -108t17 -108t49.5 -97t78.5 -70t104 -27t104.5 27t78.5 70t49.5 97t17.5 108t-17.5 108.5t-49.5 97.5t-78.5 70t-104.5 27zM302 585q49 0 87.5 -22.5t65.5 -58.5t41 -81t14 -90t-14.5 -90t-41.5 -81t-65.5 -58
t-86.5 -22t-86.5 22.5t-65.5 58t-41.5 80.5t-14.5 90t14.5 90t41.5 81t65.5 58.5t86.5 22.5z" />
    <glyph glyph-name="p" unicode="p" horiz-adv-x="470" 
d="M139 573q9 0 18 0.5t18 0.5h71q30 0 56 -3t45 -14t30 -32.5t11 -58.5q0 -53 -27 -87.5t-82 -34.5h-140v229zM139 294q25 0 50 -0.5t50 -0.5h25.5t25.5 1q38 0 66.5 13.5t48 37t29.5 54.5t10 67q0 48 -16 78t-43 47.5t-63 24t-76 6.5h-63q-23 -1 -46.5 -1h-46.5v-575h49
v248z" />
    <glyph glyph-name="q" unicode="q" horiz-adv-x="617" 
d="M92 337q0 47 16 91t44.5 78.5t68.5 55.5t88 21t88 -21t68.5 -55.5t44.5 -78.5t16 -91q0 -69 -35 -129.5t-93 -95.5l-39 69h-55q13 -21 25 -42.5t24 -43.5q-10 -2 -19 -3t-19 -1q-46 0 -87 20t-71 54t-47.5 78.5t-17.5 93.5zM309 632q-58 0 -106 -25t-82.5 -66
t-53.5 -94.5t-19 -109.5t19 -109t53.5 -94.5t82.5 -66.5t106 -25q33 0 68 11l57 -100h54q-17 29 -33 59t-33 59q68 42 107.5 113.5t39.5 152.5q0 56 -19 109.5t-53 94.5t-82 66t-106 25z" />
    <glyph glyph-name="r" unicode="r" horiz-adv-x="466" 
d="M142 573q9 0 17.5 0.5t17.5 0.5h71q30 0 56.5 -3t45.5 -14t30 -32.5t11 -58.5q0 -51 -31 -75.5t-78 -24.5h-140v207zM292 321q33 1 61 10.5t49 27.5t33 44.5t12 62.5q0 48 -16 78t-43.5 47.5t-63.5 24t-76 6.5h-78q-20 -1 -39 -1h-39v-575h50v275h98l149 -275h50z" />
    <glyph glyph-name="s" unicode="s" horiz-adv-x="426" 
d="M47 101q30 -34 72.5 -52t87.5 -18q36 0 67 11.5t54.5 32.5t37 51.5t13.5 68.5q0 39 -13 65t-34 43.5t-47.5 29t-53.5 21.5q-25 9 -48 19t-41 24t-29 34.5t-11 50.5q0 23 9.5 41.5t25.5 32t36 21t41 7.5q32 0 62 -11.5t53 -34.5l36 38q-29 30 -68.5 44.5t-80.5 14.5
q-34 0 -64 -11.5t-52.5 -32.5t-35.5 -50.5t-13 -65.5q0 -45 15.5 -73.5t39.5 -47t53.5 -30t58.5 -22.5q22 -8 41.5 -17.5t34.5 -22t23.5 -30.5t8.5 -44q0 -28 -10 -48t-27 -33t-39.5 -19t-46.5 -6q-32 0 -65.5 16t-54.5 41z" />
    <glyph glyph-name="t" unicode="t" horiz-adv-x="411" 
d="M184 572v-526h44v526h160v49h-365v-49h161z" />
    <glyph glyph-name="u" unicode="u" horiz-adv-x="534" 
d="M122 620h-42v-362q0 -45 11 -86t34 -72.5t58 -50.5t84 -19t84 19t58 50.5t34 72.5t11 86v362h-42q0 -94 2 -187t-2 -187q-1 -33 -10.5 -63t-27.5 -52.5t-44.5 -36t-62.5 -13.5t-62.5 13.5t-44.5 36.5t-27 52.5t-11 62.5v374z" />
    <glyph glyph-name="v" unicode="v" horiz-adv-x="480" 
d="M17 621q23 -68 45 -135t45 -136q25 -76 50 -151.5t51 -152.5h47q24 68 48.5 135t49.5 136q27 76 54.5 151.5t54.5 152.5h-47q-18 -51 -36.5 -101.5t-37.5 -101.5q-28 -76 -55.5 -151.5t-54.5 -152.5l-166 507h-48z" />
    <glyph glyph-name="w" unicode="w" horiz-adv-x="712" 
d="M208 46q17 59 33.5 117t33.5 117l42 146l42 146l136 -526h45l146 575h-43l-127 -508l-126 508h-62q-13 -48 -25.5 -95t-26.5 -95q-22 -79 -43.5 -158t-43.5 -159l-121 507h-43l137 -575h46z" />
    <glyph glyph-name="x" unicode="x" 
d="M208 346q-5 -7 -8.5 -14t-7.5 -14l-161 -272h52q29 50 58.5 99t58.5 99l33 57l147 -255h54l-174 300l162 275h-52q-34 -57 -67.5 -114.5t-68.5 -114.5l-131 229h-54q40 -69 79 -137.5t80 -137.5z" />
    <glyph glyph-name="y" unicode="y" horiz-adv-x="422" 
d="M234 46v245l169 330h-52q-49 -100 -100 -200q-19 -40 -40 -80l-140 280h-51l167 -330v-245h47z" />
    <glyph glyph-name="z" unicode="z" horiz-adv-x="426" 
d="M341 570l-301 -465v-59h357v51h-315l311 465v59h-338v-51h286z" />
    <glyph glyph-name="braceright" unicode="}" horiz-adv-x="257" 
d="M214 293q-35 2 -49.5 33t-18 71.5t-0.5 82t3 64.5q0 52 -27 72t-75 22v-34q39 -2 53.5 -22.5t14.5 -56.5q0 -32 -2 -66t0.5 -67t13 -63.5t34.5 -56.5q-24 -25 -34 -55.5t-13 -63t-1 -65.5t2 -65q0 -38 -15 -59t-53 -24v-34q54 2 78 26t24 79q0 24 -3 64t0.5 78.5t18 67
t49.5 30.5v42z" />
  </font>
</defs>
</svg>
